<svg viewBox="0 0 36 26" xmlns="http://www.w3.org/2000/svg"><path d="m363.6 256c2.2-.6 4.2-1.5 6-2.7s3.333333-2.566667 4.6-4.1 2.233333-3.166667 2.9-4.9 1-3.4 1-5c0-2.933333-.9-5.15-2.7-6.65s-3.8-2.35-6-2.55c-.733333 0-1.483333.25-2.25.75s-1.45 1.133333-2.05 1.9-1.05 1.65-1.35 2.65-.283333 2.033333.05 3.1c1 .4 2.166667.9 3.5 1.5s2.366667 1.2 3.1 1.8c.333333 2.533333-.35 4.766667-2.05 6.7s-3.85 3.3-6.45 4.1zm-18.2 0c2.2-.6 4.2-1.5 6-2.7s3.333333-2.566667 4.6-4.1 2.233333-3.166667 2.9-4.9 1-3.4 1-5c0-2.933333-.9-5.15-2.7-6.65s-3.8-2.35-6-2.55c-.733333 0-1.483333.25-2.25.75s-1.45 1.133333-2.05 1.9-1.05 1.65-1.35 2.65-.283333 2.033333.05 3.1c1 .4 2.166667.9 3.5 1.5s2.366667 1.2 3.1 1.8c.333333 2.533333-.35 4.766667-2.05 6.7s-3.85 3.3-6.45 4.1z" fill="currentColor" transform="translate(-343 -230)"/></svg>
