<svg viewBox="0 0 34 26" xmlns="http://www.w3.org/2000/svg"><path d="m250.2 242.6c.666667-.066667 1.4-.35 2.2-.85s1.5-1.133333 2.1-1.9 1.033333-1.65 1.3-2.65.266667-2.033333 0-3.1c-1-.333333-2.166667-.816667-3.5-1.45s-2.366667-1.25-3.1-1.85c-.333333-2.533333.25-4.6 1.75-6.2s3.516667-2.8 6.05-3.6l-1.6-3.4c-2.4.466667-4.466667 1.25-6.2 2.35s-3.166667 2.366667-4.3 3.8-1.983333 2.983333-2.55 4.65-.85 3.333333-.85 5c0 2.866667.866667 5.066667 2.6 6.6s3.766667 2.4 6.1 2.6zm-18.2 0c.666667-.066667 1.4-.35 2.2-.85s1.5-1.133333 2.1-1.9 1.033333-1.65 1.3-2.65.266667-2.033333 0-3.1c-1-.333333-2.166667-.816667-3.5-1.45s-2.366667-1.25-3.1-1.85c-.333333-2.533333.25-4.6 1.75-6.2s3.516667-2.8 6.05-3.6l-1.6-3.4c-2.4.466667-4.466667 1.25-6.2 2.35s-3.166667 2.366667-4.3 3.8-1.983333 2.983333-2.55 4.65-.85 3.333333-.85 5c0 2.866667.866667 5.066667 2.6 6.6s3.766667 2.4 6.1 2.6z" fill="currentColor" transform="translate(-223 -217)"/></svg>
