<svg viewBox="0 0 382 382" xmlns="http://www.w3.org/2000/svg"><g fill="none"><path d="m0 0h382v382h-382z" fill="#0077b7"/><g fill="#fff"><path d="m118.207 329.844c0 5.554-4.502 10.056-10.056 10.056h-42.806c-5.554 0-10.056-4.502-10.056-10.056v-179.441c0-5.554 4.502-10.056 10.056-10.056h42.806c5.554 0 10.056 4.502 10.056 10.056z"/><path d="m86.748 123.432c-22.459 0-40.666-18.207-40.666-40.666s18.207-40.666 40.666-40.666 40.666 18.207 40.666 40.666-18.206 40.666-40.666 40.666z"/><path d="m341.910027 330.654c0 5.106-4.140027 9.246-9.246027 9.246h-45.934c-5.106 0-9.246-4.14-9.246-9.246v-84.168c0-12.556 3.683-55.021-32.813-55.021-28.309 0-34.051 29.066-35.204 42.11v97.079c0 5.106-4.139 9.246-9.246 9.246h-44.426c-5.106 0-9.246-4.14-9.246-9.246v-181.061c0-5.106 4.14-9.246 9.246-9.246h44.426c5.106 0 9.246 4.14 9.246 9.246v15.655c10.497-15.753 26.097-27.912 59.312-27.912 73.552 0 73.131027 68.716 73.131027 106.472z"/></g></g></svg>
