<svg viewBox="0 0 533.08 82.72" xmlns="http://www.w3.org/2000/svg" xmlns:xlink="http://www.w3.org/1999/xlink"><linearGradient id="a" gradientTransform="matrix(.99999903 -.00139626 .00139626 .99999903 -14.55 -2.84)" gradientUnits="userSpaceOnUse" x1="49.96" x2="14.48" y1="40.43" y2="40.43"><stop offset="0" stop-color="#fdb913"/><stop offset="1" stop-color="#f58220"/></linearGradient><linearGradient id="b" gradientTransform="matrix(.99999903 -.00139626 .00139626 .99999903 -14.55 -2.84)" gradientUnits="userSpaceOnUse" x1="39.03" x2="74.52" y1="40.84" y2="40.84"><stop offset="0" stop-color="#c4161c"/><stop offset="1" stop-color="#f58220"/></linearGradient><linearGradient id="c" gradientTransform="matrix(.99999903 -.00139626 .00139626 .99999903 -14.55 -2.84)" gradientUnits="userSpaceOnUse" x1="74.51" x2="39.04" y1="49.03" y2="49.03"><stop offset="0" stop-color="#f9ec00"/><stop offset="1" stop-color="#f37160"/></linearGradient><linearGradient id="d" x1="14.48" x2="49.96" xlink:href="#b" y1="49.03" y2="49.03"/><path d="m332.09 68.25c.11 0 .17.22.17.28a.62.62 0 0 1 -.51.47c-.48 0-1.27.07-1.89.07-.07 0-.13.06-.18.17-.68 2.17-2 7.06-2.72 9.53a4.79 4.79 0 0 1 -2.13 3 5.75 5.75 0 0 1 -2.4 1c-1 0-1.53-.45-1.5-1 0-.28.62-1 .92-1a.39.39 0 0 1 .34.15 1.81 1.81 0 0 0 1.4.83c.58 0 1.26-.34 1.91-2.83s1.85-6.81 2.73-9.68a.13.13 0 0 0 -.13-.17h-1.31a.22.22 0 0 1 -.22-.22.54.54 0 0 1 .41-.51h1.42c.06 0 .13-.11.15-.15.71-2.06 1.95-4.94 3.58-6a3.6 3.6 0 0 1 2.11-.8c1.09 0 1.61.69 1.59 1.35a1.44 1.44 0 0 1 -1.06 1.46c-.1 0-.17-.06-.17-.21s0-.32 0-.45c0-.8-.32-1.53-.9-1.53s-1.2.34-2 1.83a24.93 24.93 0 0 0 -1.63 4.27.26.26 0 0 0 .09.21z" fill="#fff"/><path d="m339 70.5a7.28 7.28 0 0 1 -3.73 6.17 4.12 4.12 0 0 1 -1.79.45 2.14 2.14 0 0 1 -1.86-2.3 8.66 8.66 0 0 1 2.7-5.58 4.09 4.09 0 0 1 2.68-1.14 2.28 2.28 0 0 1 2 2.4zm-3.73-.87a10.5 10.5 0 0 0 -2.15 5.94.84.84 0 0 0 .81 1c.35 0 .82-.22 1.42-1a11.62 11.62 0 0 0 2.26-5.86c0-.6-.22-1-.8-1a2.11 2.11 0 0 0 -1.56.92z" fill="#fff"/><path d="m344.14 69.07a11.31 11.31 0 0 1 -.71 2.74c-.13.39.1.33.38-.15a15.55 15.55 0 0 1 1.7-2.34 2.83 2.83 0 0 1 1.87-1.22.79.79 0 0 1 .81.88 1.85 1.85 0 0 1 -1 1.61c-.15 0-.25-.11-.25-.47s-.22-.8-.41-.8-.64.24-1.42 1.46-2.66 4.9-3 5.59-.71.77-.91.77a.62.62 0 0 1 -.49-.3.58.58 0 0 1 0-.32c.9-2.3 1.5-3.8 2.19-6 .24-.82 0-1-.22-1a1.87 1.87 0 0 0 -1.2.84c-.23.3-.38.43-.47.43s-.17-.37-.09-.63a2.88 2.88 0 0 1 2.32-2.1.92.92 0 0 1 .9 1.01z" fill="#fff"/><path d="m85.73 34.86c0-7.56 5.44-13 12.86-13a12.58 12.58 0 0 1 12.91 13 12.56 12.56 0 0 1 -12.91 13c-7.42.01-12.86-5.44-12.86-13zm22.54 0c0-5.9-4.1-10.14-9.68-10.14s-9.68 4.28-9.68 10.14 4.15 10.14 9.68 10.14 9.68-4.28 9.68-10.14z" fill="#fff"/><path d="m122.33 22.37h2.86l10.05 15.21 10.1-15.21h2.81v24.85h-3v-19.41l-9.87 14.71-9.87-14.71v19.41h-3z" fill="#fff"/><path d="m161 22.23h3.14v25.08h-3.14z" fill="#fff"/><path d="m200.79 34.86c0 7.15-4.75 12.36-13 12.36h-10.69v-24.85h10.65c8.06 0 13.04 5.3 13.04 12.49zm-20.6-9.63v19.13h7.56c6.41 0 9.86-4 9.86-9.54s-3.69-9.59-9.86-9.59z" fill="#fff"/><path d="m216.05 34.77-11.2-12.4h3.87l8.9 9.82 8.85-9.82h3.92l-11.25 12.45v12.4h-3.09z" fill="#fff"/><path d="m244.68 22.37h2.58l12.31 24.85h-3.37l-3.36-6.68-6.84-13.93-10.17 20.61h-3.32z" fill="#fff"/><path d="m268.74 22.37h14.26c4.89 0 7.79 2.58 7.79 6.91a6.91 6.91 0 0 1 -5.9 7l6.22 10.93h-3.41l-6.22-10.88h-9.64v10.89h-3.09zm14.06 11.06c3.14 0 4.75-1.42 4.75-4.05s-1.61-4.15-4.61-4.15h-11.11v8.2z" fill="#fff"/><path d="m322.77 22.37h19.55v2.86h-16.46v7.28h10v2.86h-10v11.85h-3.09z" fill="#fff"/><path d="m351.07 22.37h19.55v2.86h-16.46v7.28h10v2.86h-10v9h17.48v2.86h-20.57z" fill="#fff"/><path d="m381.78 22.37h3.08v22h16.23v2.86h-19.31z" fill="#fff"/><path d="m410.31 22.37h3.09v22h16.23v2.86h-19.32z" fill="#fff"/><path d="m436 34.86c0-7.56 5.44-13 12.86-13a12.58 12.58 0 0 1 12.91 13 12.56 12.56 0 0 1 -12.91 13c-7.38.01-12.86-5.44-12.86-13zm22.54 0c0-5.9-4.1-10.14-9.68-10.14s-9.68 4.24-9.68 10.14 4.19 10.14 9.72 10.14 9.68-4.28 9.68-10.14z" fill="#fff"/><path d="m468.77 22.37h3l6.23 19.18 6.31-19.18h2.77l6.32 19.13 6.17-19.13h3l-8.07 24.85h-2.26l-6.55-20-6.5 20h-2.26z" fill="#fff"/><path d="m511 40.81a18.37 18.37 0 0 0 11.06 4.19c4.75 0 7.74-2.26 7.74-5.21 0-2.26-1.93-4.11-5.8-4.43-4.25-.32-7.61-.37-10.24-1.57a5.58 5.58 0 0 1 -3.55-5.11c0-3.83 3.73-6.87 9.63-6.87a20.17 20.17 0 0 1 11.9 4.05l-1.8 2.58a15.87 15.87 0 0 0 -10.05-3.73c-3.92 0-6.45 1.75-6.45 3.83a2.65 2.65 0 0 0 1.2 2.21c2.12 1.61 5.67 1.25 10.23 1.75 5.21.6 8.21 3.6 8.21 7.38 0 4.29-4 8-11 8a20.33 20.33 0 0 1 -13-4.38z" fill="#fff"/><path d="m237.77 39.49s2.49-2 8-3.14c4.55-.94 6.36-.57 6.36-.57" fill="#fff"/><path d="m238.61 40.56-1.69-2.13c.11-.09 2.82-2.21 8.57-3.41 4.68-1 6.69-.61 6.9-.57l-.55 2.66a18.29 18.29 0 0 0 -5.8.57c-5.04 1.05-7.41 2.86-7.43 2.88z" fill="#fff"/><path d="m6.86 67.92a41.55 41.55 0 0 0 8.33 7.17c-3.68-10.31-2.06-22.76 4.89-31.15l9.92-11.94c7.27-8.85 7.25-23.22 0-32l-23.2 28c-5.87 7.09-7.94 17.11-6.21 26.27a30 30 0 0 0 6.27 13.65z" fill="url(#a)"/><path d="m40 43.91c7.15 8.59 8.71 21.47 4.69 31.94a40.91 40.91 0 0 0 8.59-8 30 30 0 0 0 6.23-13.67c1.66-9.18-.43-19.18-6.33-26.26l-23.18-27.92c-7.32 8.8-7.3 23.17 0 32z" fill="url(#b)"/><path d="m53.23 67.86c5.88-7.11 8-17.13 6.21-26.29a29.93 29.93 0 0 0 -6.26-13.65l-13.27-15.92c9.12 11 9.15 28.94.05 39.93l-9.96 11.96a25 25 0 0 0 -5.43 15.53c8.28 2.2 18.49.73 28.66-11.56z" fill="url(#c)"/><path d="m35.53 79.79a25.14 25.14 0 0 0 -5.53-15.9l-9.95-12c-9.05-10.89-9.11-28.89-.05-39.89l-13.2 16a30.05 30.05 0 0 0 -6.22 13.65c-1.71 9.17.42 19.18 6.28 26.27 0 0 12.71 15.19 28.67 11.87z" fill="url(#d)"/><g fill="#fff"><path d="m86.46 67.22h9.28v1.2h-3.95v9h-1.36v-9h-4z"/><path d="m97.08 77.42 4.73-10.2h1.29l4.73 10.2h-1.49l-1.34-3.06h-5.14l-1.37 3.06zm3.27-4.15h4.12l-2-4.46h-.1z"/><path d="m120.73 67.22-4.07 3.89 4.92 6.31h-1.74l-4.16-5.42-2.45 2.39v3h-1.36v-10.17h1.36v5.67l5.82-5.67z"/><path d="m125.47 77.42v-10.2h1.36v10.2z"/><path d="m141.27 67.22v10.2h-1.27l-6.49-7.83v7.83h-1.36v-10.2h1.23l6.49 7.83v-7.83z"/><path d="m155.11 69.52a5.54 5.54 0 0 0 -3.62-1.36 4.16 4.16 0 1 0 .12 8.32 5.57 5.57 0 0 0 3.3-1v-2.42h-3.31v-1.2h4.54v4.28a7.86 7.86 0 0 1 -4.6 1.55 5.38 5.38 0 1 1 -.07-10.69 7.18 7.18 0 0 1 4.58 1.72z"/><path d="m171.5 67a5.38 5.38 0 1 1 -5.65 5.35 5.51 5.51 0 0 1 5.65-5.35zm0 9.53a4.16 4.16 0 1 0 -4.23-4.18 4.2 4.2 0 0 0 4.23 4.13z"/><path d="m190.9 67.22v10.2h-1.24l-6.48-7.83v7.83h-1.38v-10.2h1.2l6.48 7.83v-7.83z"/><path d="m200.54 67.22h9.27v1.2h-3.95v9h-1.36v-9h-4z"/><path d="m218.25 67a5.38 5.38 0 1 1 -5.65 5.35 5.51 5.51 0 0 1 5.65-5.35zm0 9.53a4.16 4.16 0 1 0 0-8.32 4.16 4.16 0 1 0 0 8.32z"/><path d="m237.66 77.42v-7.73h-.08l-3.68 6.2h-.28l-3.69-6.2h-.08v7.73h-1.3v-10.2h1.45l3.81 6.42 3.81-6.42h1.38v10.2z"/><path d="m249.3 67a5.38 5.38 0 1 1 -5.65 5.35 5.51 5.51 0 0 1 5.65-5.35zm0 9.53a4.16 4.16 0 1 0 0-8.32 4.16 4.16 0 1 0 0 8.32z"/><path d="m259.61 77.42v-10.2h5.62a3.72 3.72 0 0 1 2.86 1 2.86 2.86 0 0 1 .78 2 3 3 0 0 1 -2.37 2.84l2.5 4.36h-1.55l-2.34-4.15h-4.11v4.15zm1.36-9v3.64h4.6a1.88 1.88 0 0 0 2-1.83 1.71 1.71 0 0 0 -.49-1.18 2.38 2.38 0 0 0 -1.81-.63z"/><path d="m273.63 77.42v-10.2h5.62a3.72 3.72 0 0 1 2.86 1 2.86 2.86 0 0 1 .78 2 3 3 0 0 1 -2.37 2.84l2.48 4.36h-1.54l-2.35-4.15h-4.11v4.15zm1.36-9v3.64h4.61a1.87 1.87 0 0 0 1.95-1.83 1.71 1.71 0 0 0 -.49-1.18 2.38 2.38 0 0 0 -1.81-.63z"/><path d="m292.4 67a5.38 5.38 0 1 1 -5.66 5.35 5.51 5.51 0 0 1 5.66-5.35zm0 9.53a4.16 4.16 0 1 0 -4.24-4.18 4.2 4.2 0 0 0 4.24 4.13z"/><path d="m302.71 67.22 2.53 8.15h.08l2.6-8.15h1l2.61 8.15h.09l2.53-8.15h1.41l-3.28 10.2h-1.4l-2.46-7.65h-.1l-2.47 7.65h-1.35l-3.28-10.2z"/><path d="m359.56 77.42v-10.2h1.36v4.06h6.27v-4.06h1.34v10.2h-1.34v-4.94h-6.27v4.94z"/><path d="m372.58 77.42 4.73-10.2h1.28l4.73 10.2h-1.48l-1.39-3.06h-5.09l-1.36 3.06zm3.26-4.16h4.16l-2-4.45h-.09z"/><path d="m387 67.22 2.53 8.15h.08l2.6-8.15h1l2.61 8.15h.1l2.53-8.15h1.4l-3.28 10.2h-1.39l-2.47-7.66h-.09l-2.47 7.66h-1.39l-3.28-10.2z"/><path d="m402 77.42 4.73-10.2h1.27l4.74 10.2h-1.49l-1.39-3.06h-5.09l-1.37 3.06zm3.26-4.16h4.13l-2-4.45h-.09z"/><path d="m416.77 77.42v-10.2h1.36v10.2z"/><path d="m423.49 77.42v-10.2h1.36v10.2z"/><path d="m429.42 70.47c.69-.19 1.81-.8 1.81-1.66a.34.34 0 0 0 -.19-.33 1.59 1.59 0 0 1 -.39.08.81.81 0 1 1 0-1.61 1.53 1.53 0 0 1 1.52 1.55 3 3 0 0 1 -2.39 2.73z"/><path d="m444.08 69.37a5.78 5.78 0 0 0 -3.78-1.26c-1.31 0-2.66.47-2.66 1.75s1.69 1.37 3.35 1.47 4.65.29 4.65 3c0 2.37-2.11 3.32-4.56 3.32a7.57 7.57 0 0 1 -5.36-2.09l.83-.94a6.43 6.43 0 0 0 4.56 1.88c1.74 0 3.17-.63 3.17-2 0-1.53-1.56-1.77-3.29-1.89-2.21-.14-4.71-.3-4.71-2.66s2.24-3 4.07-3a7.44 7.44 0 0 1 4.54 1.48z"/><path d="m455.66 77.42v-10.2h8.06v1.2h-6.72v3.12h4.12v1.21h-4.12v4.67z"/><path d="m476.52 67.22v6.57c0 2.49-1.92 3.89-4.5 3.89s-4.47-1.4-4.47-3.89v-6.57h1.35v6.57c0 1.74 1.37 2.69 3.12 2.69s3.14-1 3.14-2.69v-6.57z"/><path d="m480.44 67.22h9.28v1.2h-4v9h-1.36v-9h-4z"/><path d="m502.61 67.22v6.57c0 2.49-1.92 3.89-4.5 3.89s-4.47-1.4-4.47-3.89v-6.57h1.36v6.57c0 1.74 1.38 2.69 3.13 2.69s3.14-1 3.14-2.69v-6.57z"/><path d="m507.86 77.42v-10.2h5.62a3.71 3.71 0 0 1 2.86 1 2.86 2.86 0 0 1 .78 2 3 3 0 0 1 -2.37 2.84l2.51 4.33h-1.54l-2.35-4.16h-4.15v4.16zm1.36-9v3.64h4.61a1.87 1.87 0 0 0 1.95-1.83 1.79 1.79 0 0 0 -.48-1.23 2.38 2.38 0 0 0 -1.82-.62z"/><path d="m527.36 72.65h-4.12v3.57h7.2v1.2h-8.56v-10.2h8.2v1.2h-6.84v3h4.12z"/></g></svg>