<svg viewBox="0 0 61 81" xmlns="http://www.w3.org/2000/svg" xmlns:xlink="http://www.w3.org/1999/xlink"><linearGradient id="a" x1="61.154681%" x2="38.850688%" y1="49.966978%" y2="50.032951%"><stop offset="0" stop-color="#888"/><stop offset="1" stop-color="#8b8b8b"/></linearGradient><linearGradient id="b"><stop offset="0" stop-color="#6d6d6d"/><stop offset="1" stop-color="#8b8b8b"/></linearGradient><linearGradient id="c" x1="39.032949%" x2="60.958382%" xlink:href="#b" y1="50.02698%" y2="49.961649%"/><linearGradient id="d" x1="63.487583%" x2="36.482267%" y1="49.927315%" y2="49.999857%"><stop offset=".00030048077" stop-color="#7d7d7d"/><stop offset=".999781469" stop-color="#aaa"/></linearGradient><linearGradient id="e" x1="40.74086%" x2="140.620102%" xlink:href="#b" y1="54.244886%" y2="54.244886%"/><g fill="none"><path d="m6.86 67.92c2.44692046 2.7483178 5.2480876 5.1594064 8.33 7.17-3.68-10.31-2.06-22.76 4.89-31.15l9.92-11.94c7.27-8.85 7.25-23.22 0-32l-23.2 28c-5.87 7.09-7.94 17.11-6.21 26.27.89864713 5.0080831 3.05628074 9.7053237 6.27 13.65z" fill="url(#a)"/><path d="m40 43.91c7.15 8.59 8.71 21.47 4.69 31.94 3.2330091-2.2398778 6.1261165-4.9342736 8.59-8 3.2024137-3.9545554 5.3462967-8.6587097 6.23-13.67 1.66-9.18-.43-19.18-6.33-26.26l-23.18-27.92c-7.32 8.8-7.3 23.17 0 32z" fill="url(#c)"/><path d="m53.23 67.86c5.88-7.11 8-17.13 6.21-26.29-.8927601-5.0080512-3.0472403-9.7059193-6.26-13.65l-13.27-15.92c9.12 11 9.15 28.94.05 39.93l-9.96 11.96c-3.5102674 4.4157956-5.4239409 9.8889725-5.43 15.53 8.28 2.2 18.49.73 28.66-11.56z" fill="url(#d)"/><path d="m35.53 79.79c.0386586-5.7780171-1.9142223-11.3929913-5.53-15.9l-9.95-12c-9.05-10.89-9.11-28.89-.05-39.89l-13.2 16c-3.19389125 3.9510384-5.33389733 8.647354-6.22 13.65-1.71 9.17.42 19.18 6.28 26.27 0 0 12.71 15.19 28.67 11.87z" fill="url(#e)"/></g></svg>
