<svg viewBox="0 0 381.54 58.83" xmlns="http://www.w3.org/2000/svg" xmlns:xlink="http://www.w3.org/1999/xlink"><linearGradient id="a" gradientTransform="matrix(.99999903 -.00139626 .00139626 .99999903 -14.78 -3.22)" gradientUnits="userSpaceOnUse" x1="144.71" x2="120.13" y1="380.97" y2="380.97"><stop offset="0" stop-color="#fdb913"/><stop offset="1" stop-color="#f58220"/></linearGradient><linearGradient id="b" gradientTransform="matrix(.99999903 -.00139626 .00139626 .99999903 -14.78 -3.22)" gradientUnits="userSpaceOnUse" x1="137.14" x2="161.71" y1="381.25" y2="381.25"><stop offset="0" stop-color="#c4161c"/><stop offset="1" stop-color="#f58220"/></linearGradient><linearGradient id="c" gradientTransform="matrix(.99999903 -.00139626 .00139626 .99999903 -14.78 -3.22)" gradientUnits="userSpaceOnUse" x1="161.71" x2="137.14" y1="386.92" y2="386.92"><stop offset="0" stop-color="#f9ec00"/><stop offset="1" stop-color="#f37160"/></linearGradient><linearGradient id="d" x1="120.13" x2="144.7" xlink:href="#b" y1="386.92" y2="386.92"/><g transform="translate(-105.89 -351.56)"><g fill="#fff"><path d="m169 395.52h1.22v8.69h6.41v1.13h-7.63z"/><path d="m180.31 395.52h7.69v1.13h-6.5v2.88h3.93v1.13h-3.93v3.55h6.91v1.13h-8.13v-9.82z"/><path d="m195.79 395.52h1l4.86 9.82h-1.33l-1.32-2.64h-5.43l-1.29 2.64h-1.28zm2.68 6-2.17-4.35-2.15 4.35z"/><path d="m214.7 400.46c0 2.82-1.88 4.88-5.16 4.88h-4.21v-9.82h4.21a4.79 4.79 0 0 1 5.16 4.94zm-8.15-3.81v7.56h3a3.56 3.56 0 0 0 3.9-3.77 3.62 3.62 0 0 0 -3.9-3.79z"/><path d="m219 395.52h7.73v1.13h-6.51v2.88h3.94v1.13h-3.94v3.55h6.91v1.13h-8.13z"/><path d="m231.12 395.52h5.63c1.93 0 3.08 1 3.08 2.73a2.73 2.73 0 0 1 -2.33 2.75l2.46 4.32h-1.35l-2.46-4.3h-3.81v4.3h-1.22v-9.82zm5.56 4.37c1.24 0 1.88-.56 1.88-1.61a1.58 1.58 0 0 0 -1.82-1.64h-4.39v3.24h4.34z"/><path d="m244 402.81a7.26 7.26 0 0 0 4.39 1.66c1.88 0 3.06-.89 3.06-2.06 0-.9-.76-1.62-2.29-1.75a12.62 12.62 0 0 1 -4-.62 2.21 2.21 0 0 1 -1.4-2c0-1.51 1.48-2.71 3.81-2.71a8 8 0 0 1 4.7 1.6l-.71 1a6.27 6.27 0 0 0 -4-1.47c-1.55 0-2.55.69-2.55 1.51a1.05 1.05 0 0 0 .47.88c.84.64 2.24.49 4 .69 2.06.24 3.24 1.42 3.24 2.92 0 1.7-1.57 3.15-4.34 3.15a8 8 0 0 1 -5.12-1.73z"/><path d="m257.31 395.52h1.24v3.88h5.8v-3.88h1.22v9.82h-1.22v-4.81h-5.8v4.81h-1.24z"/><path d="m270.72 395.47h1.28v9.91h-1.24v-9.91z"/><path d="m277 395.52h5.63c1.93 0 3.08 1 3.08 2.66a2.72 2.72 0 0 1 -2.92 2.86h-4.57v4.3h-1.22zm5.56 4.37c1.24 0 1.88-.56 1.88-1.61a1.58 1.58 0 0 0 -1.82-1.64h-4.39v3.24h4.34z"/><path d="m302.42 398.11a.26.26 0 0 1 .15.24.53.53 0 0 1 -.44.4c-.4 0-1.08.05-1.6.05a.19.19 0 0 0 -.15.15c-.58 1.84-1.73 6-2.31 8.09a4.07 4.07 0 0 1 -1.8 2.55 4.94 4.94 0 0 1 -2 .8c-.84 0-1.29-.38-1.27-.82a1.33 1.33 0 0 1 .78-.84.36.36 0 0 1 .29.13 1.52 1.52 0 0 0 1.18.71c.49 0 1.08-.29 1.62-2.4s1.57-5.78 2.32-8.22a.11.11 0 0 0 -.11-.15h-1.11a.18.18 0 0 1 -.18-.18.45.45 0 0 1 .35-.44h1.2a.23.23 0 0 0 .13-.13c.6-1.75 1.66-4.19 3-5.12a3.1 3.1 0 0 1 1.79-.67 1.18 1.18 0 0 1 1.35 1.14 1.22 1.22 0 0 1 -.89 1.24.15.15 0 0 1 -.14-.18c0-.09 0-.27 0-.38a1.09 1.09 0 0 0 -.77-1.3c-.55 0-1 .29-1.73 1.55a21.54 21.54 0 0 0 -1.39 3.63.23.23 0 0 0 .08.19z"/><path d="m308.26 400a6.16 6.16 0 0 1 -3.17 5.23 3.36 3.36 0 0 1 -1.51.38 1.82 1.82 0 0 1 -1.59-2 7.33 7.33 0 0 1 2.3-4.74 3.49 3.49 0 0 1 2.26-1 1.94 1.94 0 0 1 1.71 2.13zm-3.17-.74a9 9 0 0 0 -1.82 5 .71.71 0 0 0 .69.8 1.71 1.71 0 0 0 1.21-.82 9.86 9.86 0 0 0 1.91-5 .71.71 0 0 0 -.67-.88 1.8 1.8 0 0 0 -1.31.92z"/><path d="m312.64 398.8a9.53 9.53 0 0 1 -.6 2.33c-.11.33.09.27.33-.13a12.81 12.81 0 0 1 1.44-2 2.4 2.4 0 0 1 1.58-1 .68.68 0 0 1 .69.75 1.57 1.57 0 0 1 -.86 1.36c-.13 0-.22-.09-.22-.4a.67.67 0 0 0 -.35-.67c-.22 0-.55.2-1.2 1.24s-2.26 4.16-2.55 4.74a.92.92 0 0 1 -.76.66.53.53 0 0 1 -.42-.26.47.47 0 0 1 0-.27c.77-1.95 1.28-3.22 1.86-5 .2-.69 0-.86-.18-.86a1.59 1.59 0 0 0 -1 .71.87.87 0 0 1 -.4.37.47.47 0 0 1 -.08-.53 2.44 2.44 0 0 1 2-1.79.78.78 0 0 1 .72.75z"/><path d="m325.71 395.52h1.24v3.88h5.8v-3.88h1.25v9.82h-1.22v-4.81h-5.8v4.81h-1.24v-9.82z"/><path d="m342.43 395.52h1l4.87 9.82h-1.3l-1.33-2.64h-5.42l-1.3 2.64h-1.31zm2.68 6-2.17-4.35-2.15 4.35z"/><path d="m350.4 395.52h1.2l2.44 7.58 2.5-7.58h1.1l2.5 7.56 2.44-7.56h1.17l-3.19 9.82h-.89l-2.59-7.91-2.57 7.91h-.89z"/><path d="m370.63 395.52h1l4.87 9.82h-1.33l-1.33-2.64h-5.43l-1.29 2.64h-1.31zm2.68 6-2.17-4.35-2.14 4.38h4.32z"/><path d="m380.21 395.47h1.24v9.91h-1.24z"/><path d="m386.61 395.47h1.24v9.91h-1.24z"/><path d="m392.68 397h-.09a.69.69 0 0 1 -.62-.78.8.8 0 0 1 .77-.88 1 1 0 0 1 .84 1.2 3.71 3.71 0 0 1 -1.35 2.33l-.33-.31a6 6 0 0 0 .78-1.56z"/><path d="m396.63 402.81a7.26 7.26 0 0 0 4.39 1.66c1.87 0 3.06-.89 3.06-2.06 0-.9-.76-1.62-2.29-1.75a12.61 12.61 0 0 1 -4-.62 2.2 2.2 0 0 1 -1.4-2c0-1.51 1.47-2.71 3.81-2.71a8 8 0 0 1 4.7 1.6l-.71 1a6.28 6.28 0 0 0 -4-1.47c-1.55 0-2.55.69-2.55 1.51a1 1 0 0 0 .48.88c.84.64 2.24.49 4 .69 2.06.24 3.24 1.42 3.24 2.92 0 1.7-1.57 3.15-4.34 3.15a8 8 0 0 1 -5.12-1.73z"/><path d="m418.17 395.52h7.72v1.13h-6.5v2.88h3.94v1.13h-3.94v4.68h-1.22z"/><path d="m430.33 401.88c0 2 .58 2.57 2.82 2.57s2.83-.53 2.83-2.57v-6.36h1.22v6.69c0 2.41-1.15 3.39-4 3.39s-4-1-4-3.39v-6.69h1.22v6.36z"/><path d="m443.81 396.65h-4.13v-1.13h9.49v1.13h-4.17v8.69h-1.22v-8.69z"/><path d="m452.85 401.88c0 2 .58 2.57 2.83 2.57s2.82-.53 2.82-2.57v-6.36h1.22v6.69c0 2.41-1.15 3.39-4 3.39s-4.05-1-4.05-3.39v-6.69h1.23v6.36z"/><path d="m464.57 395.52h5.63c1.93 0 3.08 1 3.08 2.73a2.73 2.73 0 0 1 -2.33 2.77l2.46 4.32h-1.35l-2.46-4.34h-3.81v4.3h-1.22v-9.82zm5.56 4.37c1.24 0 1.88-.56 1.88-1.61a1.58 1.58 0 0 0 -1.82-1.64h-4.39v3.24h4.34z"/><path d="m477.69 395.52h7.73v1.13h-6.5v2.88h3.94v1.13h-3.94v3.55h6.91v1.13h-8.13v-9.82z"/><path d="m166.58 375.6a9.24 9.24 0 1 1 9.22 9.33 9 9 0 0 1 -9.22-9.33zm16.17 0c0-4.23-2.94-7.27-6.95-7.27a7.26 7.26 0 1 0 6.95 7.27z"/><path d="m192.83 366.64h2.05l7.21 10.91 7.24-10.91h2v17.82h-2.18v-13.92l-7.08 10.55-7.07-10.55v13.92h-2.18v-17.82z"/><path d="m220.54 366.54h2.25v18h-2.25z"/><path d="m249.11 375.6c0 5.13-3.41 8.86-9.36 8.86h-7.64v-17.82h7.64c5.78 0 9.36 3.8 9.36 8.96zm-14.78-6.91v13.72h5.42c4.6 0 7.08-2.84 7.08-6.84s-2.65-6.88-7.08-6.88z"/><path d="m260 375.54-8-8.89h2.78l6.38 7 6.35-7h2.81l-8.07 8.93v8.9h-2.25v-8.93z"/><path d="m280.58 366.64h1.85l8.83 17.82h-2.41l-2.41-4.8-4.93-10-7.28 14.78h-2.38zm3.61 11.63"/><path d="m297.84 366.64h10.22c3.51 0 5.59 1.85 5.59 5a5 5 0 0 1 -4.23 5l4.46 7.84h-2.45l-4.43-7.82h-6.91v7.81h-2.21v-17.83zm10.09 7.94c2.25 0 3.41-1 3.41-2.91s-1.16-3-3.31-3h-8v5.89h7.87z"/><path d="m336.59 366.64h14v2.05h-11.8v5.22h7.14v2h-7.14v8.5h-2.21v-17.77z"/><path d="m356.89 366.64h14v2.05h-11.8v5.22h7.14v2h-7.14v6.45h12.53v2.05h-14.73z"/><path d="m378.91 366.64h2.22v15.77h11.64v2.05h-13.86z"/><path d="m399.38 366.64h2.21v15.77h11.64v2.05h-13.85z"/><path d="m417.83 375.6a9.24 9.24 0 1 1 9.23 9.33 9 9 0 0 1 -9.23-9.33zm16.17 0c0-4.23-2.94-7.27-6.94-7.27a7.27 7.27 0 1 0 6.94 7.27z"/><path d="m441.3 366.64h2.18l4.43 13.76 4.53-13.76h2l4.56 13.72 4.43-13.72h2.12l-5.79 17.82h-1.66l-4.7-14.35-4.66 14.35h-1.62z"/><path d="m471.56 379.87a13.18 13.18 0 0 0 8 3c3.4 0 5.55-1.62 5.55-3.74 0-1.62-1.39-2.94-4.16-3.17-3-.23-5.46-.26-7.34-1.12a4 4 0 0 1 -2.55-3.67c0-2.74 2.68-4.93 6.91-4.93a14.44 14.44 0 0 1 8.53 2.91l-1.32 1.85a11.35 11.35 0 0 0 -7.21-2.68c-2.81 0-4.63 1.26-4.63 2.75a1.91 1.91 0 0 0 .86 1.59c1.52 1.16 4.07.89 7.34 1.26 3.74.43 5.88 2.58 5.88 5.29 0 3.07-2.84 5.72-7.87 5.72a14.56 14.56 0 0 1 -9.29-3.14z"/><path d="m275.62 378.92a14.49 14.49 0 0 1 5.74-2.26 13 13 0 0 1 4.56-.41"/><path d="m276.23 379.69-1.23-1.52a15.35 15.35 0 0 1 6.14-2.45 13.59 13.59 0 0 1 5-.41l-.4 1.91a13.08 13.08 0 0 0 -4.16.41 13.8 13.8 0 0 0 -5.35 2.06z"/></g><path d="m110.64 398.6a28.82 28.82 0 0 0 5.77 5c-2.54-7.14-1.42-15.76 3.39-21.57l6.87-8.31a18.06 18.06 0 0 0 0-22.12l-16 19.38a22.39 22.39 0 0 0 -4.3 18.2 20.82 20.82 0 0 0 4.27 9.42z" fill="url(#a)"/><path d="m133.56 382c4.95 5.95 6 14.87 3.25 22.12a28.29 28.29 0 0 0 6-5.54 20.78 20.78 0 0 0 4.31-9.46 22.39 22.39 0 0 0 -4.35-18.19l-16.08-19.33a18.05 18.05 0 0 0 0 22.12z" fill="url(#b)"/><path d="m142.76 398.55a22.39 22.39 0 0 0 4.3-18.2 20.81 20.81 0 0 0 -4.34-9.45l-9.19-11c6.32 7.6 6.34 20 0 27.65l-6.87 8.31a17.32 17.32 0 0 0 -3.76 10.75c5.74 1.47 12.81.45 19.86-8.06z" fill="url(#c)"/><path d="m130.5 406.82a17.37 17.37 0 0 0 -3.8-11l-6.89-8.29c-6.32-7.6-6.34-20 0-27.65l-9.16 11.08a20.8 20.8 0 0 0 -4.31 9.46 22.39 22.39 0 0 0 4.35 18.19s8.76 10.51 19.81 8.21z" fill="url(#d)"/></g></svg>